<?xml version="1.0" standalone="no"?>
<!DOCTYPE svg PUBLIC "-//W3C//DTD SVG 20010904//EN"
 "http://www.w3.org/TR/2001/REC-SVG-20010904/DTD/svg10.dtd">
<svg version="1.0" xmlns="http://www.w3.org/2000/svg"
 width="200.000000pt" height="200.000000pt" viewBox="0 0 200.000000 200.000000"
 preserveAspectRatio="xMidYMid meet">
<metadata>
Created by potrace 1.14, written by Peter Selinger 2001-2017
</metadata>
<g transform="translate(0.000000,200.000000) scale(0.100000,-0.100000)"
fill="#000000" stroke="none">
<path d="M0 1000 l0 -1000 1000 0 1000 0 0 1000 0 1000 -1000 0 -1000 0 0
-1000z m1277 415 l278 -134 3 -70 3 -70 -63 -3 -63 -3 -3 -37 c-3 -33 1 -40
29 -57 38 -23 69 -67 69 -98 0 -34 -65 -33 -92 2 -24 31 -68 33 -93 5 -32 -35
-11 -69 75 -117 104 -60 122 -80 128 -145 5 -63 -20 -108 -81 -147 -30 -20
-37 -30 -37 -58 0 -32 -1 -33 -40 -33 -40 0 -40 0 -40 39 0 34 -4 40 -31 51
-35 15 -74 63 -84 103 -7 27 -6 27 39 27 34 0 46 -4 46 -15 0 -23 45 -47 81
-43 21 2 39 12 52 30 29 39 12 70 -55 104 -112 56 -148 99 -148 178 0 36 6 52
31 80 16 19 39 38 50 41 15 5 19 16 19 51 l0 44 -112 0 -113 0 3 -270 3 -270
-140 0 -141 0 0 39 c0 22 4 41 9 43 6 2 11 101 13 231 2 177 0 227 -9 227 -8
0 -13 15 -13 40 l0 40 313 1 312 0 -238 120 -237 119 -38 -19 c-20 -10 -54
-26 -74 -34 l-38 -16 0 42 0 43 73 36 c39 20 73 37 74 37 1 1 127 -60 280
-134z m-53 -917 c20 -17 36 -35 36 -40 0 -4 -92 -8 -205 -8 l-205 0 0 40 0 40
169 0 169 0 36 -32z"/>
<path d="M970 1122 c-20 -16 -20 -26 -18 -227 l3 -210 45 0 45 0 3 196 c1 108
-2 208 -7 221 -12 32 -45 41 -71 20z"/>
</g>
</svg>
